<svg xmlns="http://www.w3.org/2000/svg" xmlns:xlink="http://www.w3.org/1999/xlink" viewBox="-1174 70 364.876 37.557">
  <defs>
    <style>
      .cls-1 {
        fill: none;
      }

      .cls-2 {
        clip-path: url(#clip-path);
      }

      .cls-3 {
        fill: #7f5235;
      }
    </style>
    <clipPath id="clip-path">
      <path id="Pfad_3" data-name="Pfad 3" class="cls-1" d="M0-28.523H364.876V9.034H0Z" transform="translate(0 28.523)"/>
    </clipPath>
  </defs>
  <g id="Gruppe_4" data-name="Gruppe 4" transform="translate(-1174 70)">
    <g id="Gruppe_3" data-name="Gruppe 3" class="cls-2" transform="translate(0 0)">
      <g id="Gruppe_1" data-name="Gruppe 1" transform="translate(90.601)">
        <path id="Pfad_1" data-name="Pfad 1" class="cls-3" d="M6.337,9.034V1.63H-12.5V-28.523h-7.512V9.034ZM25.6-28.523H18.085V9.034H25.6ZM75.332-3.092A8.587,8.587,0,0,0,70.074-11.3a8.253,8.253,0,0,0,3.971-7.3c0-6.44-4.615-9.927-11.911-9.927H44.911V9.034H61.972c8.048,0,13.359-4.24,13.359-12.126M66.425-18.008c0,2.094-1.126,3.543-4.239,3.543H52.261V-21.6h9.55c3.273,0,4.614,1.234,4.614,3.595M67.606-2.985c0,2.952-1.717,4.882-5.366,4.882H52.261V-7.812h9.979c3.649,0,5.366,1.609,5.366,4.827M119.54,9.034V1.684H100.17V-7.384h10.788v-7.3H100.17v-6.491h18.567v-7.351H92.662V9.034Zm48.072,0L160.422-5.559c4.777-1.879,7.191-5.42,7.191-11.053,0-8-5.848-11.911-12.929-11.911H137.19V9.034H144.7V-4.488h7.565l6.706,13.521Zm-7.727-25.485c0,3.273-1.876,4.882-5.364,4.882H144.7v-9.658h9.819c3.326,0,5.364,1.4,5.364,4.776M208.7-21.119v-7.4H179.626v7.4H190.41V9.034h7.511V-21.119Zm45.561-7.4h-8.528l-5.312,8.908c-1.4,2.36-3.381,5.956-4.079,7.349-.7-1.393-2.735-5.1-4.078-7.349l-5.31-8.908h-8.638L232.537-5.667v14.7h7.512V-5.827Z" transform="translate(20.008 28.523)"/>
      </g>
      <g id="Gruppe_2" data-name="Gruppe 2" transform="translate(0 0.073)">
        <path id="Pfad_2" data-name="Pfad 2" class="cls-3" d="M12.145,0V19.653H27.389V15.078H17.534V11.71h5.813V7.187H17.534V4.577h9.659V0ZM-2.829,0V7.16H-8.951V0H-14.51V19.653h5.559V11.9h6.121v7.749H2.73V0ZM-38.345,0V4.747h5.5V19.653H-27.4V4.747h5.5V0Z" transform="translate(38.345)"/>
      </g>
    </g>
  </g>
</svg>
