<?xml version="1.0" encoding="utf-8"?>
<!-- Generator: Adobe Illustrator 16.0.0, SVG Export Plug-In . SVG Version: 6.00 Build 0)  -->
<!DOCTYPE svg PUBLIC "-//W3C//DTD SVG 1.1//EN" "http://www.w3.org/Graphics/SVG/1.1/DTD/svg11.dtd">
<svg version="1.1" id="Ebene_1" xmlns="http://www.w3.org/2000/svg" xmlns:xlink="http://www.w3.org/1999/xlink" x="0px" y="0px"
	 width="375px" height="72px" viewBox="0 0 375 72" enable-background="new 0 0 375 72" xml:space="preserve">
<desc>Created with Sketch.</desc>
<g id="Page-1">
	<g id="Liberty-Logo" transform="translate(0.000000, -1.000000)">
		<g id="liberty-logo">
			<g id="Gruppe_1" transform="translate(91.791045, 0.000000)">
				<path id="Pfad_1" fill="#FFFFFF" d="M28.059,39.546v-7.594H8.731V1.025H1.022v38.521H28.059z M47.825,1.025h-7.711v38.521h7.711
					V1.025z M98.857,27.109c0.123-3.654-2.023-7.003-5.396-8.418c2.607-1.581,4.164-4.44,4.074-7.487
					c0-6.605-4.735-10.182-12.222-10.182H67.641v38.524h17.507C93.405,39.546,98.856,35.197,98.857,27.109L98.857,27.109z
					 M89.717,11.81c0,2.148-1.155,3.634-4.35,3.634H75.183V8.126h9.8c3.358,0,4.734,1.266,4.734,3.688V11.81z M90.929,27.218
					c0,3.028-1.763,5.007-5.507,5.007H75.183v-9.958h10.239C89.166,22.268,90.929,23.918,90.929,27.218L90.929,27.218z
					 M144.219,39.546v-7.539h-19.876v-9.301h11.07V15.22h-11.07V8.562h19.052v-7.54h-26.756v38.523H144.219z M193.547,39.546
					l-7.378-14.967c4.901-1.927,7.379-5.559,7.379-11.336c0-8.205-6.001-12.217-13.268-12.217h-17.95v38.521h7.706V25.677h7.763
					l6.881,13.868L193.547,39.546z M185.617,13.407c0,3.357-1.925,5.007-5.504,5.007h-10.077V8.509h10.075
					c3.413,0,5.504,1.436,5.504,4.898H185.617z M235.707,8.62V1.03h-29.833v7.59h11.065v30.926h7.707V8.62H235.707z M282.458,1.03
					h-8.75l-5.451,9.136c-1.437,2.421-3.47,6.109-4.186,7.538c-0.718-1.429-2.807-5.231-4.185-7.538l-5.448-9.136h-8.864
					l14.593,23.438v15.077h7.708V24.304L282.458,1.03z"/>
			</g>
			<g id="Gruppe_2" transform="translate(0.000000, 1.111111)">
				<path id="Pfad_2" fill="#FFFFFF" d="M52.237,0v19.653h15.771v-4.575H57.813V11.71h6.014V7.187h-6.014v-2.61h9.993V0H52.237z
					 M36.744,0v7.16h-6.333V0h-5.752v19.653h5.752V11.9h6.332v7.749h5.753V0H36.744z M0,0v4.747h5.69v14.906h5.633V4.747h5.69V0H0z"
					/>
			</g>
		</g>
	</g>
	<path id="Bremerhaven-Copy" fill="#FFFFFF" d="M132.252,68.79c0,1.987-1.218,3.01-3.36,3.01H125V62h4.031
		c1.708,0,2.814,0.896,2.814,2.548c0,0.994-0.532,1.61-1.246,1.96C131.37,66.718,132.252,67.432,132.252,68.79z M130.376,64.632
		c0-0.728-0.378-1.288-1.358-1.288h-2.632v2.534h2.632C129.984,65.878,130.376,65.275,130.376,64.632z M130.781,68.832
		c0-1.008-0.63-1.624-1.735-1.624h-2.66v3.248h2.618C130.306,70.456,130.781,69.798,130.781,68.832z M143.778,64.926
		c0,1.568-0.825,2.534-2.155,2.87l2.002,4.004h-1.694l-1.946-3.878h-2.212V71.8h-1.441V62h4.298
		C142.336,62,143.778,62.91,143.778,64.926z M142.294,64.968c0-1.022-0.672-1.582-1.666-1.582h-2.856v3.15h2.856
		C141.608,66.536,142.294,66.032,142.294,64.968z M154.45,71.8v-1.428h-5.055v-3.095h2.814V65.85h-2.814v-2.422h4.844V62h-6.313v9.8
		H154.45z M167.18,71.8V62h-1.568l-2.155,5.223c-0.238,0.573-0.519,1.273-0.658,1.68c-0.126-0.406-0.435-1.12-0.672-1.68L159.928,62
		h-1.512v9.8h1.386v-5.18c0-0.588-0.014-1.442-0.028-1.722c0.112,0.279,0.393,0.979,0.63,1.539l2.353,5.517l2.38-5.517
		c0.238-0.56,0.518-1.26,0.63-1.539c-0.014,0.279-0.028,1.134-0.028,1.722v5.18H167.18z M178.132,71.8v-1.428h-5.054v-3.095h2.813
		V65.85h-2.813v-2.422h4.844V62h-6.314v9.8H178.132z M189.546,64.926c0,1.568-0.826,2.534-2.156,2.87l2.002,4.004h-1.694
		l-1.945-3.878h-2.212V71.8h-1.442V62h4.298C188.104,62,189.546,62.91,189.546,64.926z M188.062,64.968
		c0-1.022-0.672-1.582-1.666-1.582h-2.855v3.15h2.855C187.376,66.536,188.062,66.032,188.062,64.968z M201.142,71.8V62h-1.47v3.962
		h-4.508V62h-1.471v9.8h1.471v-4.396h4.508V71.8H201.142z M213.606,71.8h-1.567l-0.826-2.323h-3.92L206.48,71.8h-1.525l3.527-9.8
		h1.555L213.606,71.8z M210.764,68.16l-0.784-2.254c-0.237-0.7-0.63-1.834-0.742-2.254c-0.111,0.42-0.462,1.539-0.714,2.268
		l-0.784,2.24H210.764z M225.118,62h-1.568l-2.016,6.23c-0.183,0.574-0.463,1.455-0.547,1.806c-0.084-0.351-0.363-1.218-0.546-1.792
		L218.398,62h-1.596l3.402,9.8h1.554L225.118,62z M235.454,71.8v-1.428H230.4v-3.095h2.814V65.85H230.4v-2.422h4.845V62h-6.314v9.8
		H235.454z M246.868,71.8V62h-1.429v5.055c0,0.545,0.015,1.945,0.015,2.31c-0.141-0.253-0.561-0.98-0.812-1.386L240.918,62h-1.498
		v9.8h1.428v-5.082c0-0.546-0.014-1.903-0.014-2.268c0.153,0.252,0.49,0.84,0.728,1.204l3.906,6.146H246.868z"/>
</g>
</svg>
