
<svg width="375px" height="73px" viewBox="0 0 375 73" version="1.1" xmlns="http://www.w3.org/2000/svg" xmlns:xlink="http://www.w3.org/1999/xlink">
    <!-- Generator: Sketch 47.1 (45422) - http://www.bohemiancoding.com/sketch -->
    <desc>Created with Sketch.</desc>
    <defs></defs>
    <g id="Page-1" stroke="none" stroke-width="1" fill="none" fill-rule="evenodd">
        <g id="liberty-logo-BH" fill-rule="nonzero" fill="#564943">
            <g id="Liberty-Logo">
                <g id="liberty-logo">
                    <g id="Gruppe_1" transform="translate(92.791045, 0.000000)">
                        <path d="M27.0592351,38.545641 L27.0592351,30.9517949 L7.73022388,30.9517949 L7.73022388,0.02564103 L0.02201493,0.02564103 L0.02201493,38.545641 L27.0592351,38.545641 Z M46.8253731,0.02564103 L39.1140858,0.02564103 L39.1140858,38.545641 L46.8253731,38.545641 L46.8253731,0.02564103 Z M97.8563433,26.1087179 C97.9800609,22.4553248 95.8330647,19.1053193 92.4610075,17.6902564 C95.0689613,16.1099658 96.6253735,13.2501038 96.5357276,10.2030769 C96.5357276,3.59794872 91.8001866,0.02153846 84.3136194,0.02153846 L66.6407649,0.02153846 L66.6407649,38.545641 L84.1473881,38.545641 C92.405597,38.545641 97.8553172,34.1969231 97.8553172,26.1087179 L97.8563433,26.1087179 Z M88.7166978,10.8102564 C88.7166978,12.9579487 87.5612873,14.4441026 84.3669776,14.4441026 L74.1827425,14.4441026 L74.1827425,7.12615385 L83.9821828,7.12615385 C87.3406716,7.12615385 88.7166978,8.39179487 88.7166978,10.8133333 L88.7166978,10.8102564 Z M89.9285448,26.2184615 C89.9285448,29.2461538 88.1666978,31.225641 84.4223881,31.225641 L74.1827425,31.225641 L74.1827425,21.2676923 L84.4223881,21.2676923 C88.1666978,21.2676923 89.9285448,22.9179487 89.9285448,26.2184615 L89.9285448,26.2184615 Z M143.21903,38.545641 L143.21903,31.0071795 L123.343097,31.0071795 L123.343097,21.7066667 L134.412873,21.7066667 L134.412873,14.2194872 L123.343097,14.2194872 L123.343097,7.56205128 L142.395056,7.56205128 L142.395056,0.0225641 L115.638993,0.0225641 L115.638993,38.545641 L143.21903,38.545641 Z M192.546642,38.545641 L185.168843,23.5784615 C190.070616,21.6512821 192.547668,18.0194872 192.547668,12.2420513 C192.547668,4.03692308 186.546922,0.02564103 179.28097,0.02564103 L161.330037,0.02564103 L161.330037,38.545641 L169.036194,38.545641 L169.036194,24.6769231 L176.798787,24.6769231 L183.679944,38.5446154 L192.546642,38.545641 Z M184.617817,12.4071795 C184.617817,15.7641026 182.692817,17.414359 179.113713,17.414359 L169.036194,17.414359 L169.036194,7.50871795 L179.11166,7.50871795 C182.524534,7.50871795 184.615765,8.94461538 184.615765,12.4071795 L184.617817,12.4071795 Z M234.707836,7.61948718 L234.707836,0.02974359 L204.87444,0.02974359 L204.87444,7.61948718 L215.940112,7.61948718 L215.940112,38.545641 L223.647295,38.545641 L223.647295,7.61948718 L234.707836,7.61948718 Z M281.458862,0.02974359 L272.708116,0.02974359 L267.257369,9.1661538 C265.820802,11.5866667 263.78806,15.2748718 263.071828,16.7035897 C262.353545,15.2748718 260.265392,11.4728205 258.887313,9.1661538 L253.438619,0.02974359 L244.575,0.02974359 L259.167444,23.4676923 L259.167444,38.5446154 L266.875653,38.5446154 L266.875653,23.3035897 L281.458862,0.02974359 Z" id="Pfad_1"></path>
                    </g>
                    <g id="Gruppe_2" transform="translate(0.000000, 0.111111)">
                        <path d="M52.2369403,0 L52.2369403,19.653 L68.0083786,19.653 L68.0083786,15.078 L57.8123982,15.078 L57.8123982,11.71 L63.8265265,11.71 L63.8265265,7.187 L57.8123982,7.187 L57.8123982,4.577 L67.805597,4.577 L67.805597,0 L52.2369403,0 Z M36.744844,0 L36.744844,7.16 L30.4110244,7.16 L30.4110244,0 L24.6596845,0 L24.6596845,19.653 L30.4110244,19.653 L30.4110244,11.9 L36.7438094,11.9 L36.7438094,19.649 L42.4961839,19.649 L42.4961839,0 L36.744844,0 Z M0,0 L0,4.747 L5.69029851,4.747 L5.69029851,19.653 L11.323694,19.653 L11.323694,4.747 L17.0139925,4.747 L17.0139925,0 L0,0 Z" id="Pfad_2"></path>
                    </g>
                </g>
            </g>
            <path d="M132.235,68.99 C132.235,70.978 131.017,72 128.875,72 L124.983,72 L124.983,62.2 L129.015,62.2 C130.723,62.2 131.829,63.096 131.829,64.748 C131.829,65.742 131.297,66.358 130.583,66.708 C131.353,66.918 132.235,67.632 132.235,68.99 Z M130.359,64.832 C130.359,64.104 129.981,63.544 129.001,63.544 L126.369,63.544 L126.369,66.078 L129.001,66.078 C129.967,66.078 130.359,65.476 130.359,64.832 Z M130.765,69.032 C130.765,68.024 130.135,67.408 129.029,67.408 L126.369,67.408 L126.369,70.656 L128.987,70.656 C130.289,70.656 130.765,69.998 130.765,69.032 Z M143.761,65.126 C143.761,66.694 142.935,67.66 141.605,67.996 L143.607,72 L141.913,72 L139.967,68.122 L137.755,68.122 L137.755,72 L136.313,72 L136.313,62.2 L140.611,62.2 C142.319,62.2 143.761,63.11 143.761,65.126 Z M142.277,65.168 C142.277,64.146 141.605,63.586 140.611,63.586 L137.755,63.586 L137.755,66.736 L140.611,66.736 C141.591,66.736 142.277,66.232 142.277,65.168 Z M154.433,72 L154.433,70.572 L149.379,70.572 L149.379,67.478 L152.193,67.478 L152.193,66.05 L149.379,66.05 L149.379,63.628 L154.223,63.628 L154.223,62.2 L147.909,62.2 L147.909,72 L154.433,72 Z M167.163,72 L167.163,62.2 L165.595,62.2 L163.439,67.422 C163.201,67.996 162.921,68.696 162.781,69.102 C162.655,68.696 162.347,67.982 162.109,67.422 L159.911,62.2 L158.399,62.2 L158.399,72 L159.785,72 L159.785,66.82 C159.785,66.232 159.771,65.378 159.757,65.098 C159.869,65.378 160.149,66.078 160.387,66.638 L162.739,72.154 L165.119,66.638 C165.357,66.078 165.637,65.378 165.749,65.098 C165.735,65.378 165.721,66.232 165.721,66.82 L165.721,72 L167.163,72 Z M178.115,72 L178.115,70.572 L173.061,70.572 L173.061,67.478 L175.875,67.478 L175.875,66.05 L173.061,66.05 L173.061,63.628 L177.905,63.628 L177.905,62.2 L171.591,62.2 L171.591,72 L178.115,72 Z M189.529,65.126 C189.529,66.694 188.703,67.66 187.373,67.996 L189.375,72 L187.681,72 L185.735,68.122 L183.523,68.122 L183.523,72 L182.081,72 L182.081,62.2 L186.379,62.2 C188.087,62.2 189.529,63.11 189.529,65.126 Z M188.045,65.168 C188.045,64.146 187.373,63.586 186.379,63.586 L183.523,63.586 L183.523,66.736 L186.379,66.736 C187.359,66.736 188.045,66.232 188.045,65.168 Z M201.125,72 L201.125,62.2 L199.655,62.2 L199.655,66.162 L195.147,66.162 L195.147,62.2 L193.677,62.2 L193.677,72 L195.147,72 L195.147,67.604 L199.655,67.604 L199.655,72 L201.125,72 Z M213.589,72 L212.021,72 L211.195,69.676 L207.275,69.676 L206.463,72 L204.937,72 L208.465,62.2 L210.019,62.2 L213.589,72 Z M210.747,68.36 L209.963,66.106 C209.725,65.406 209.333,64.272 209.221,63.852 C209.109,64.272 208.759,65.392 208.507,66.12 L207.723,68.36 L210.747,68.36 Z M225.101,62.2 L223.533,62.2 L221.517,68.43 C221.335,69.004 221.055,69.886 220.971,70.236 C220.887,69.886 220.607,69.018 220.425,68.444 L218.381,62.2 L216.785,62.2 L220.187,72 L221.741,72 L225.101,62.2 Z M235.437,72 L235.437,70.572 L230.383,70.572 L230.383,67.478 L233.197,67.478 L233.197,66.05 L230.383,66.05 L230.383,63.628 L235.227,63.628 L235.227,62.2 L228.913,62.2 L228.913,72 L235.437,72 Z M246.851,72 L246.851,62.2 L245.423,62.2 L245.423,67.254 C245.423,67.8 245.437,69.2 245.437,69.564 C245.297,69.312 244.877,68.584 244.625,68.178 L240.901,62.2 L239.403,62.2 L239.403,72 L240.831,72 L240.831,66.918 C240.831,66.372 240.817,65.014 240.817,64.65 C240.971,64.902 241.307,65.49 241.545,65.854 L245.451,72 L246.851,72 Z" id="Bremerhaven"></path>
        </g>
    </g>
</svg>