<?xml version="1.0" encoding="utf-8"?>
<!-- Generator: Adobe Illustrator 16.0.0, SVG Export Plug-In . SVG Version: 6.00 Build 0)  -->
<!DOCTYPE svg PUBLIC "-//W3C//DTD SVG 1.1//EN" "http://www.w3.org/Graphics/SVG/1.1/DTD/svg11.dtd">
<svg version="1.1" id="Ebene_1" xmlns="http://www.w3.org/2000/svg" xmlns:xlink="http://www.w3.org/1999/xlink" x="0px" y="0px"
	 width="375px" height="73px" viewBox="0 0 375 73" enable-background="new 0 0 375 73" xml:space="preserve">
<desc>Created with Sketch.</desc>
<g id="Page-1">
	<g id="Liberty-Logo" transform="translate(0.000000, -1.000000)">
		<g id="liberty-logo">
			<g id="Gruppe_1" transform="translate(91.791045, 0.000000)">
				<path id="Pfad_1" fill="#564943" d="M28.059,39.546v-7.594H8.731V1.025H1.022v38.521H28.059z M47.825,1.025h-7.711v38.521h7.711
					V1.025z M98.857,27.109c0.123-3.654-2.023-7.003-5.396-8.418c2.607-1.581,4.164-4.44,4.074-7.487
					c0-6.605-4.735-10.182-12.222-10.182H67.641v38.524h17.507C93.405,39.546,98.856,35.197,98.857,27.109L98.857,27.109z
					 M89.717,11.81c0,2.148-1.155,3.634-4.35,3.634H75.183V8.126h9.8c3.358,0,4.734,1.266,4.734,3.688V11.81z M90.929,27.218
					c0,3.028-1.763,5.007-5.507,5.007H75.183v-9.958h10.239C89.166,22.268,90.929,23.918,90.929,27.218L90.929,27.218z
					 M144.219,39.546v-7.539h-19.876v-9.301h11.07V15.22h-11.07V8.562h19.052v-7.54h-26.756v38.523H144.219z M193.547,39.546
					l-7.378-14.967c4.901-1.927,7.379-5.559,7.379-11.336c0-8.205-6.001-12.217-13.268-12.217h-17.95v38.521h7.706V25.677h7.763
					l6.881,13.868L193.547,39.546z M185.617,13.407c0,3.357-1.925,5.007-5.504,5.007h-10.077V8.509h10.075
					c3.413,0,5.504,1.436,5.504,4.898H185.617z M235.707,8.62V1.03h-29.833v7.59h11.065v30.926h7.707V8.62H235.707z M282.458,1.03
					h-8.75l-5.451,9.136c-1.437,2.421-3.47,6.109-4.186,7.538c-0.718-1.429-2.807-5.231-4.185-7.538l-5.448-9.136h-8.864
					l14.593,23.438v15.077h7.708V24.304L282.458,1.03z"/>
			</g>
			<g id="Gruppe_2" transform="translate(0.000000, 1.111111)">
				<path id="Pfad_2" fill="#564943" d="M52.237,0v19.653h15.771v-4.575H57.813V11.71h6.014V7.187h-6.014v-2.61h9.993V0H52.237z
					 M36.744,0v7.16h-6.333V0h-5.752v19.653h5.752V11.9h6.332v7.749h5.753V0H36.744z M0,0v4.747h5.69v14.906h5.633V4.747h5.69V0H0z"
					/>
			</g>
		</g>
	</g>
	<path id="Bremerhaven" fill="#564943" d="M132.235,68.99c0,1.988-1.218,3.01-3.359,3.01h-3.893v-9.8h4.032
		c1.708,0,2.814,0.896,2.814,2.548c0,0.994-0.532,1.609-1.246,1.96C131.353,66.918,132.235,67.632,132.235,68.99z M130.359,64.832
		c0-0.729-0.378-1.288-1.357-1.288h-2.632v2.534h2.632C129.967,66.078,130.359,65.477,130.359,64.832z M130.765,69.032
		c0-1.009-0.63-1.624-1.736-1.624h-2.659v3.248h2.617C130.289,70.656,130.765,69.998,130.765,69.032z M143.761,65.126
		c0,1.567-0.826,2.534-2.156,2.87L143.607,72h-1.693l-1.946-3.878h-2.212V72h-1.442v-9.8h4.298
		C142.319,62.2,143.761,63.109,143.761,65.126z M142.277,65.168c0-1.021-0.672-1.582-1.666-1.582h-2.855v3.15h2.855
		C141.591,66.736,142.277,66.232,142.277,65.168z M154.433,72v-1.428h-5.054v-3.094h2.813V66.05h-2.813v-2.422h4.844V62.2h-6.313V72
		H154.433z M167.163,72v-9.8h-1.568l-2.156,5.222c-0.237,0.574-0.518,1.273-0.658,1.68c-0.126-0.406-0.434-1.119-0.672-1.68
		l-2.197-5.222h-1.513V72h1.387v-5.18c0-0.588-0.015-1.442-0.028-1.723c0.112,0.28,0.392,0.98,0.63,1.541l2.352,5.516l2.381-5.516
		c0.237-0.561,0.518-1.261,0.63-1.541c-0.015,0.28-0.028,1.135-0.028,1.723V72H167.163z M178.115,72v-1.428h-5.054v-3.094h2.814
		V66.05h-2.814v-2.422h4.844V62.2h-6.313V72H178.115z M189.529,65.126c0,1.567-0.825,2.534-2.155,2.87L189.375,72h-1.694
		l-1.946-3.878h-2.212V72h-1.441v-9.8h4.298C188.087,62.2,189.529,63.109,189.529,65.126z M188.045,65.168
		c0-1.021-0.672-1.582-1.666-1.582h-2.856v3.15h2.856C187.359,66.736,188.045,66.232,188.045,65.168z M201.125,72v-9.8h-1.471v3.962
		h-4.508V62.2h-1.47V72h1.47v-4.396h4.508V72H201.125z M213.589,72h-1.568l-0.826-2.324h-3.92L206.463,72h-1.526l3.528-9.8h1.554
		L213.589,72z M210.747,68.359l-0.784-2.254c-0.238-0.699-0.63-1.834-0.742-2.254c-0.112,0.42-0.462,1.541-0.714,2.269l-0.784,2.239
		H210.747z M225.101,62.2h-1.567l-2.017,6.229c-0.182,0.574-0.462,1.456-0.546,1.807c-0.084-0.351-0.364-1.219-0.546-1.793
		l-2.044-6.243h-1.596l3.401,9.8h1.555L225.101,62.2z M235.437,72v-1.428h-5.054v-3.094h2.813V66.05h-2.813v-2.422h4.844V62.2
		h-6.313V72H235.437z M246.851,72v-9.8h-1.428v5.054c0,0.546,0.014,1.946,0.014,2.311c-0.14-0.252-0.56-0.98-0.812-1.387
		l-3.725-5.978h-1.498V72h1.429v-5.082c0-0.546-0.015-1.904-0.015-2.268c0.154,0.252,0.49,0.84,0.729,1.203L245.451,72H246.851z"/>
</g>
</svg>
