<?xml version="1.0" encoding="utf-8"?>
<!-- Generator: Adobe Illustrator 16.0.0, SVG Export Plug-In . SVG Version: 6.00 Build 0)  -->
<!DOCTYPE svg PUBLIC "-//W3C//DTD SVG 1.1//EN" "http://www.w3.org/Graphics/SVG/1.1/DTD/svg11.dtd">
<svg version="1.1" id="Ebene_1" xmlns="http://www.w3.org/2000/svg" xmlns:xlink="http://www.w3.org/1999/xlink" x="0px" y="0px"
	 width="208px" height="20px" viewBox="0 0 208 20" enable-background="new 0 0 208 20" xml:space="preserve">
<desc>Created with Sketch.</desc>
<g id="Page-1">
	<g id="Landing-Desktop" transform="translate(-843.000000, -1787.000000)">
		<g id="Group-2" transform="translate(843.000000, 1787.000000)">
			<g id="Mulberry-street-logo---long">
				<g id="Mulberry-street-logo">
					<g id="Group-3">
						<g id="Clip-2">
						</g>
						<defs>
							<filter id="Adobe_OpacityMaskFilter" filterUnits="userSpaceOnUse" x="0" y="0.568" width="17.776" height="19.432">
								<feColorMatrix  type="matrix" values="1 0 0 0 0  0 1 0 0 0  0 0 1 0 0  0 0 0 1 0"/>
							</filter>
						</defs>
						<mask maskUnits="userSpaceOnUse" x="0" y="0.568" width="17.776" height="19.432" id="mask-2">
							<g filter="url(#Adobe_OpacityMaskFilter)">
								<polygon id="path-1" fill="#FFFFFF" points="17.776,0.568 0,0.568 0,20 17.776,20 								"/>
							</g>
						</mask>
						<path id="Fill-1" mask="url(#mask-2)" fill="#803351" d="M13.977,19.566v-6.976c0-1.031,0.055-3.446,0.055-4.179
							c-0.272,0.706-0.842,2.062-1.331,3.148L8.848,20l-3.854-8.44c-0.488-1.086-1.059-2.442-1.33-3.148
							c0,0.733,0.054,3.148,0.054,4.179v6.976H0V0.568h3.664l3.962,8.603c0.489,1.059,1.059,2.497,1.303,3.175
							c0.244-0.705,0.787-2.089,1.275-3.175l3.827-8.603h3.745v18.999H13.977z"/>
					</g>
					<g id="Group-6" transform="translate(25.000000, 0.000000)">
						<path id="Fill-4" fill="#803351" d="M7.504,19.865c-4.3,0-7.201-3.095-7.201-8.631V0.568h3.562V11.18
							c0,3.04,1.374,4.967,3.639,4.967c2.264,0,3.664-1.873,3.664-4.912V0.568h3.562V11.18C14.73,16.688,12.034,19.865,7.504,19.865
							"/>
					</g>
					<g id="Group-9" transform="translate(50.000000, 0.000000)">
						<g id="Clip-8">
						</g>
						<defs>
							<filter id="Adobe_OpacityMaskFilter_1_" filterUnits="userSpaceOnUse" x="0.278" y="0.568" width="14.278" height="18.999">
								<feColorMatrix  type="matrix" values="1 0 0 0 0  0 1 0 0 0  0 0 1 0 0  0 0 0 1 0"/>
							</filter>
						</defs>
						<mask maskUnits="userSpaceOnUse" x="0.278" y="0.568" width="14.278" height="18.999" id="mask-4">
							<g filter="url(#Adobe_OpacityMaskFilter_1_)">
								<polygon id="path-3" fill="#FFFFFF" points="14.556,0.568 0.278,0.568 0.278,19.566 14.556,19.566 								"/>
							</g>
						</mask>
						<polygon id="Fill-7" mask="url(#mask-4)" fill="#803351" points="0.278,19.566 0.278,0.568 4.349,0.568 4.349,15.82 
							14.556,15.82 14.556,19.566 						"/>
					</g>
					<g id="Group-12" transform="translate(69.000000, 0.000000)">
						<g id="Clip-11">
						</g>
						<defs>
							<filter id="Adobe_OpacityMaskFilter_2_" filterUnits="userSpaceOnUse" x="0.553" y="0.567" width="14.426" height="18.999">
								<feColorMatrix  type="matrix" values="1 0 0 0 0  0 1 0 0 0  0 0 1 0 0  0 0 0 1 0"/>
							</filter>
						</defs>
						<mask maskUnits="userSpaceOnUse" x="0.553" y="0.567" width="14.426" height="18.999" id="mask-6">
							<g filter="url(#Adobe_OpacityMaskFilter_2_)">
								<polygon id="path-5" fill="#FFFFFF" points="0.553,0.568 14.979,0.568 14.979,19.566 0.553,19.566 								"/>
							</g>
						</mask>
						<path id="Fill-10" mask="url(#mask-6)" fill="#803351" d="M8.771,11.045H4.039v4.912h4.732c1.73,0,2.544-0.979,2.544-2.471
							C11.315,11.858,10.501,11.045,8.771,11.045 M8.567,4.069H4.039v3.609h4.707c1.476,0,2.01-0.732,2.01-1.791
							C10.755,4.693,10.12,4.069,8.567,4.069 M8.644,19.566H0.553V0.567H8.72c3.461,0,5.649,1.765,5.649,5.021
							c0,1.629-0.712,2.931-1.883,3.692c1.425,0.678,2.493,2.062,2.493,4.151C14.979,17.422,12.46,19.566,8.644,19.566"/>
					</g>
					<g id="Group-15" transform="translate(94.000000, 0.000000)">
						<g id="Clip-14">
						</g>
						<defs>
							<filter id="Adobe_OpacityMaskFilter_3_" filterUnits="userSpaceOnUse" x="0.081" y="0.568" width="14.567" height="18.999">
								<feColorMatrix  type="matrix" values="1 0 0 0 0  0 1 0 0 0  0 0 1 0 0  0 0 0 1 0"/>
							</filter>
						</defs>
						<mask maskUnits="userSpaceOnUse" x="0.081" y="0.568" width="14.567" height="18.999" id="mask-8">
							<g filter="url(#Adobe_OpacityMaskFilter_3_)">
								<polygon id="path-7" fill="#FFFFFF" points="14.648,0.568 0.081,0.568 0.081,19.566 14.648,19.566 								"/>
							</g>
						</mask>
						<polygon id="Fill-13" mask="url(#mask-8)" fill="#803351" points="0.081,19.566 0.081,0.568 14.213,0.568 14.213,4.286 
							4.152,4.286 4.152,7.57 9.996,7.57 9.996,11.262 4.152,11.262 4.152,15.848 14.648,15.848 14.648,19.566 						"/>
					</g>
					<g id="Group-18" transform="translate(116.000000, 0.000000)">
						<g id="Clip-17">
						</g>
						<defs>
							<filter id="Adobe_OpacityMaskFilter_4_" filterUnits="userSpaceOnUse" x="0.121" y="0.568" width="14.426" height="18.999">
								<feColorMatrix  type="matrix" values="1 0 0 0 0  0 1 0 0 0  0 0 1 0 0  0 0 0 1 0"/>
							</filter>
						</defs>
						<mask maskUnits="userSpaceOnUse" x="0.121" y="0.568" width="14.426" height="18.999" id="mask-10">
							<g filter="url(#Adobe_OpacityMaskFilter_4_)">
								<polygon id="path-9" fill="#FFFFFF" points="14.547,0.568 0.121,0.568 0.121,19.566 14.547,19.566 								"/>
							</g>
						</mask>
						<path id="Fill-16" mask="url(#mask-10)" fill="#803351" d="M8.338,4.259H3.683v4.885h4.655c1.654,0,2.545-0.815,2.545-2.47
							C10.883,4.965,9.916,4.259,8.338,4.259L8.338,4.259z M10.45,19.566l-3.181-6.84H3.683v6.84H0.121V0.568h8.294
							c3.358,0,6.132,1.982,6.132,6.025c0,2.849-1.145,4.641-3.409,5.59l3.409,7.383H10.45z"/>
					</g>
					<g id="Group-21" transform="translate(141.000000, 0.000000)">
						<g id="Clip-20">
						</g>
						<defs>
							<filter id="Adobe_OpacityMaskFilter_5_" filterUnits="userSpaceOnUse" x="0.365" y="0.568" width="14.428" height="18.999">
								<feColorMatrix  type="matrix" values="1 0 0 0 0  0 1 0 0 0  0 0 1 0 0  0 0 0 1 0"/>
							</filter>
						</defs>
						<mask maskUnits="userSpaceOnUse" x="0.365" y="0.568" width="14.428" height="18.999" id="mask-12">
							<g filter="url(#Adobe_OpacityMaskFilter_5_)">
								<polygon id="path-11" fill="#FFFFFF" points="14.793,0.568 0.365,0.568 0.365,19.566 14.793,19.566 								"/>
							</g>
						</mask>
						<path id="Fill-19" mask="url(#mask-12)" fill="#803351" d="M8.584,4.259H3.927v4.885h4.657c1.653,0,2.543-0.815,2.543-2.47
							C11.127,4.965,10.16,4.259,8.584,4.259L8.584,4.259z M10.695,19.566l-3.182-6.84H3.927v6.84H0.365V0.568h8.294
							c3.359,0,6.134,1.982,6.134,6.025c0,2.849-1.146,4.641-3.41,5.59l3.41,7.383H10.695z"/>
					</g>
					<g id="Group-24" transform="translate(161.000000, 0.000000)">
						<g id="Clip-23">
						</g>
						<defs>
							<filter id="Adobe_OpacityMaskFilter_6_" filterUnits="userSpaceOnUse" x="0.368" y="0.567" width="18.509" height="18.999">
								<feColorMatrix  type="matrix" values="1 0 0 0 0  0 1 0 0 0  0 0 1 0 0  0 0 0 1 0"/>
							</filter>
						</defs>
						<mask maskUnits="userSpaceOnUse" x="0.368" y="0.567" width="18.509" height="18.999" id="mask-14">
							<g filter="url(#Adobe_OpacityMaskFilter_6_)">
								<polygon id="path-13" fill="#FFFFFF" points="18.877,0.568 0.368,0.568 0.368,19.566 18.877,19.566 								"/>
							</g>
						</mask>
						<path id="Fill-22" mask="url(#mask-14)" fill="#803351" d="M11.557,12.049v7.518H7.688v-7.438L0.368,0.567h4.448l2.734,4.505
							C8.24,6.213,9.29,8.086,9.648,8.792c0.36-0.706,1.384-2.525,2.1-3.719l2.736-4.505h4.393L11.557,12.049z"/>
					</g>
					<path id="Fill-25" fill="#803351" d="M193.041,11C191.493,11,190,10.487,189,9.823l1.288-2.106
						c0.698,0.485,1.917,0.97,2.808,0.97c0.945,0,1.246-0.167,1.246-0.623c0-0.36-0.342-0.583-1.629-0.887
						c-2.316-0.54-3.426-1.177-3.426-3.116c0-1.829,1.467-3.061,3.781-3.061c1.63,0,2.809,0.401,3.822,1.122l-1.288,2.105
						c-0.849-0.582-1.698-0.914-2.671-0.914c-0.795,0-0.986,0.249-0.986,0.596c0,0.36,0.342,0.526,1.574,0.817
						c2.412,0.583,3.48,1.33,3.48,3.144C197,10.085,195.342,11,193.041,11"/>
					<g id="Group-29" transform="translate(200.000000, 1.000000)">
						<g id="Clip-28">
						</g>
						<defs>
							<filter id="Adobe_OpacityMaskFilter_7_" filterUnits="userSpaceOnUse" x="0.051" y="0.061" width="7.697" height="10.273">
								<feColorMatrix  type="matrix" values="1 0 0 0 0  0 1 0 0 0  0 0 1 0 0  0 0 0 1 0"/>
							</filter>
						</defs>
						<mask maskUnits="userSpaceOnUse" x="0.051" y="0.061" width="7.697" height="10.273" id="mask-16">
							<g filter="url(#Adobe_OpacityMaskFilter_7_)">
								<polygon id="path-15" fill="#FFFFFF" points="7.748,10.334 7.748,0.061 0.051,0.061 0.051,10.334 								"/>
							</g>
						</mask>
						<polygon id="Fill-27" mask="url(#mask-16)" fill="#803351" points="5.174,2.541 5.174,10.334 2.625,10.334 2.625,2.541 
							0.051,2.541 0.051,0.061 7.748,0.061 7.748,2.541 						"/>
					</g>
				</g>
			</g>
		</g>
	</g>
</g>
</svg>
