<?xml version="1.0" encoding="utf-8"?>
<!-- Generator: Adobe Illustrator 16.0.0, SVG Export Plug-In . SVG Version: 6.00 Build 0)  -->
<!DOCTYPE svg PUBLIC "-//W3C//DTD SVG 1.1//EN" "http://www.w3.org/Graphics/SVG/1.1/DTD/svg11.dtd">
<svg version="1.1" id="Ebene_1" xmlns="http://www.w3.org/2000/svg" xmlns:xlink="http://www.w3.org/1999/xlink" x="0px" y="0px"
	 width="191px" height="18px" viewBox="0 0 191 18" enable-background="new 0 0 191 18" xml:space="preserve">
<desc>Created with Sketch.</desc>
<g id="Page-1">
	<g id="Landing-Desktop" transform="translate(-367.000000, -1787.000000)">
		<g id="New-York-Bar-Logo" transform="translate(367.000000, 1787.000000)">
			<path id="Fill-1" fill="#1A171B" d="M165.541,6.284h-2.057v1.749h2.043c0.642,0,0.936-0.373,0.936-0.887
				C166.463,6.619,166.154,6.284,165.541,6.284 M165.436,2.967h-1.951v1.414h1.951c0.601,0,0.814-0.283,0.814-0.707
				C166.25,3.275,166.049,2.967,165.436,2.967 M165.488,10H161V1h4.514c2.324,0,3.272,0.835,3.272,2.34
				c0,0.977-0.493,1.415-1.121,1.761C168.506,5.449,169,6.079,169,7.094C169,8.933,167.838,10,165.488,10"/>
			<path id="Fill-3" fill="#1A171B" d="M176.062,5.847c-0.32-1.157-0.461-1.646-0.574-2.25c-0.116,0.604-0.258,1.106-0.576,2.25
				l-0.166,0.591h1.482L176.062,5.847z M177.314,10l-0.485-1.581h-2.685L173.66,10H171l3.247-9h2.506L180,10H177.314z"/>
			<path id="Fill-5" fill="#1A171B" d="M187.107,3.031h-1.562v1.967h1.521c0.84,0,1.174-0.36,1.174-1.003
				C188.24,3.43,187.92,3.031,187.107,3.031L187.107,3.031z M188.107,10l-1.521-3.034h-1.039V10H183V1h4.173
				c2.188,0,3.642,0.797,3.642,2.932c0,1.35-0.653,2.186-1.681,2.635L191,10H188.107z"/>
			<path id="Fill-7" fill="#1A171B" d="M10.914,18L4.568,8.723c-0.42-0.631-0.987-1.481-1.21-1.918c0,0.631,0.05,2.769,0.05,3.714
				V18H0V1h3.309l6.124,8.986c0.42,0.631,0.988,1.479,1.21,1.918c0-0.631-0.049-2.77-0.049-3.716V1H14v17H10.914z"/>
			<polygon id="Fill-9" fill="#1A171B" points="23,18 23,1 35.61,1 35.61,4.328 26.632,4.328 26.632,7.266 31.848,7.266 
				31.848,10.568 26.632,10.568 26.632,14.674 36,14.674 36,18 			"/>
			<path id="Fill-11" fill="#1A171B" d="M57.261,18h-3.508L51.55,9.257c-0.255-1.02-0.512-2.283-0.615-2.915
				c-0.077,0.632-0.333,1.919-0.589,2.915L48.094,18h-3.355L41,1h3.739l1.562,8.281c0.153,0.826,0.358,2.09,0.436,2.793
				c0.128-0.703,0.409-1.967,0.614-2.793L49.45,1h3.125L54.7,9.281c0.205,0.826,0.486,2.09,0.615,2.793
				c0.077-0.703,0.282-1.991,0.435-2.793L57.312,1H61L57.261,18z"/>
			<path id="Fill-13" fill="#1A171B" d="M84.276,11.273V18h-3.552v-6.654L74,1h4.085l2.513,4.032
				c0.634,1.02,1.598,2.695,1.928,3.327c0.331-0.632,1.269-2.259,1.929-3.327L86.966,1H91L84.276,11.273z"/>
			<g id="Group-17" transform="translate(93.000000, 0.000000)">
				<path id="Fill-15" fill="#1A171B" d="M8.004,3.759c-2.83,0-4.008,2.37-4.008,5.423c0,3.052,1.178,5.421,4.008,5.421
					c2.832,0,4.01-2.369,4.01-5.421C12.014,6.128,10.836,3.759,8.004,3.759 M8.004,18c-4.783,0-7.615-3.615-7.615-8.818
					c0-5.203,2.832-8.818,7.615-8.818c4.787,0,7.617,3.615,7.617,8.818C15.621,14.385,12.791,18,8.004,18"/>
			</g>
			<path id="Fill-18" fill="#1A171B" d="M123.975,4.303h-4.518v4.372h4.518c1.605,0,2.469-0.729,2.469-2.209
				C126.443,4.935,125.506,4.303,123.975,4.303L123.975,4.303z M126.023,18l-3.086-6.119h-3.48V18H116V1h8.049
				C127.309,1,130,2.773,130,6.391c0,2.55-1.111,4.154-3.309,5.003L130,18H126.023z"/>
			<path id="Fill-20" fill="#1A171B" d="M147.869,18l-4.674-8.209l-2.754,3.205V18H137V1h3.441v4.833
				c0,0.632-0.023,2.162-0.049,2.697c0.246-0.389,0.887-1.167,1.354-1.725L146.566,1h4.156l-5.041,5.877L152,18H147.869z"/>
		</g>
	</g>
</g>
</svg>
