<?xml version="1.0" encoding="utf-8"?>
<!-- Generator: Adobe Illustrator 16.0.0, SVG Export Plug-In . SVG Version: 6.00 Build 0)  -->
<!DOCTYPE svg PUBLIC "-//W3C//DTD SVG 1.1//EN" "http://www.w3.org/Graphics/SVG/1.1/DTD/svg11.dtd">
<svg version="1.1" id="Ebene_1" xmlns="http://www.w3.org/2000/svg" xmlns:xlink="http://www.w3.org/1999/xlink" x="0px" y="0px"
	 width="839.22px" height="92.62px" viewBox="0 0 839.22 92.62" enable-background="new 0 0 839.22 92.62" xml:space="preserve">
<g>
	<defs>
		<path id="SVGID_1_" d="M839.22,14.615V1.405h-65.809v13.21h26.168V91.2h13.471V14.615H839.22z M753.57,65.421
			c0-16.035-11.031-21.687-28.734-27.073c-15.523-4.607-19.625-7.697-19.625-13.975c0-6.027,4.488-11.164,15.008-11.164
			c8.85,0,15.266,2.826,20.91,8.589l9.494-9.618C742.667,4.481,733.431,0,721.246,0c-16.551,0-29.635,9.493-29.635,25.013
			c0,16.035,9.107,20.782,28.092,26.42c15.01,4.496,20.271,7.962,20.271,14.88c0,8.728-6.031,13.084-18.6,13.084
			c-8.467,0-17.32-4.093-23.352-10.635l-9.617,9.354c7.564,8.853,18.857,14.504,31.941,14.504
			C743.308,92.62,753.57,81.582,753.57,65.421z M668.947,91.2V78.116H622.64V49.775h25.781V36.691H622.64V14.49h44.385V1.405
			h-57.855V91.2H668.947z M585.736,1.405h-13.084l-10.906,57.989c-0.383,2.171-1.152,7.182-1.797,10.509
			c-0.51-3.201-1.537-7.948-2.178-10.384L543.146,1.405h-11.547l-14.365,56.834c-0.643,2.687-1.924,8.728-2.439,11.664
			c-0.383-2.937-1.537-9.104-2.053-11.79L501.968,1.405h-13.6L506.714,91.2h13.342l14.623-57.975
			c0.77-3.076,2.182-9.758,2.564-11.929c0.387,2.171,1.799,8.853,2.568,11.929L553.794,91.2h13.596L585.736,1.405z M413.408,28.604
			c0-9.368-6.154-14.49-15.261-14.49h-26.173v28.854h26.173C407.125,42.969,413.408,38.348,413.408,28.604z M427.007,28.215
			c0,14.364-7.568,23.218-19.754,26.308L425.595,91.2h-15.52l-17.832-35.536h-20.271V91.2h-13.213V1.405h39.386
			C413.794,1.405,427.007,9.743,427.007,28.215z M334.305,91.2V78.116h-46.311V49.775h25.782V36.691h-25.782V14.49h44.386V1.405
			h-57.856V91.2H334.305z M238.135,29.495c0-9.869-6.031-15.381-15.395-15.381h-24.116v30.915h24.116
			C233.002,45.029,238.135,39.127,238.135,29.495z M251.859,29.495c0,18.485-12.315,28.229-29.76,28.229h-23.476V91.2h-13.213V1.405
			h37.586C239.544,1.405,251.859,10.898,251.859,29.495z M149.022,29.495c0-9.869-6.031-15.381-15.395-15.381h-24.115v30.915h24.115
			C143.889,45.029,149.022,39.127,149.022,29.495z M162.747,29.495c0,18.485-12.315,28.229-29.76,28.229h-23.475V91.2H96.298V1.405
			h37.586C150.432,1.405,162.747,10.898,162.747,29.495z M68.247,53.743V1.405H54.776v52.603c0,16.41-6.671,25.138-20.781,25.138
			c-13.471,0-20.524-9.103-20.524-26.043V1.405H0v52.087C0,78.255,11.546,92.62,33.737,92.62
			C56.061,92.62,68.247,78.896,68.247,53.743z"/>
	</defs>
	<clipPath id="SVGID_2_">
		<use xlink:href="#SVGID_1_"  overflow="visible"/>
	</clipPath>
	<g clip-path="url(#SVGID_2_)">
		<defs>
			<rect id="SVGID_3_" x="-3153.258" y="-15174.352" width="10262.559" height="18116.262"/>
		</defs>
		<clipPath id="SVGID_4_">
			<use xlink:href="#SVGID_3_"  overflow="visible"/>
		</clipPath>
		<rect x="-35.634" y="-35.634" clip-path="url(#SVGID_4_)" fill="#564943" width="910.487" height="163.888"/>
	</g>
</g>
</svg>
