<?xml version="1.0" encoding="utf-8"?>
<!-- Generator: Adobe Illustrator 16.0.0, SVG Export Plug-In . SVG Version: 6.00 Build 0)  -->
<!DOCTYPE svg PUBLIC "-//W3C//DTD SVG 1.1//EN" "http://www.w3.org/Graphics/SVG/1.1/DTD/svg11.dtd">
<svg version="1.1" id="Ebene_1" xmlns="http://www.w3.org/2000/svg" xmlns:xlink="http://www.w3.org/1999/xlink" x="0px" y="0px"
	 width="162px" height="14px" viewBox="0 0 162 14" enable-background="new 0 0 162 14" xml:space="preserve">
<desc>Created with Sketch.</desc>
<g id="Page-1">
	<g id="Landing-Desktop" transform="translate(-399.000000, -2129.000000)">
		<g id="The-Upper-West" transform="translate(399.000000, 2129.000000)">
			<path fill="#564943" d="M9.276,2.254V0.4H0.042v1.854h3.672V13h1.89V2.254H9.276z M22.086,13V0.4h-1.89v5.094H14.4V0.4h-1.89V13
				h1.89V7.348h5.796V13H22.086z M34.5,13v-1.836h-6.498V7.186h3.618V5.35h-3.618V2.236h6.228V0.4h-8.118V13H34.5z M53.028,7.744
				V0.4h-1.89v7.38c0,2.304-0.936,3.528-2.916,3.528c-1.89,0-2.88-1.278-2.88-3.654V0.4h-1.89v7.308c0,3.474,1.62,5.49,4.734,5.49
				C51.318,13.198,53.028,11.271,53.028,7.744z M66.288,4.342c0,2.592-1.728,3.96-4.176,3.96h-3.294V13h-1.854V0.4h5.274
				C64.56,0.4,66.288,1.732,66.288,4.342z M64.362,4.342c0-1.386-0.846-2.16-2.16-2.16h-3.384V6.52h3.384
				C63.642,6.52,64.362,5.692,64.362,4.342z M78.792,4.342c0,2.592-1.728,3.96-4.176,3.96h-3.294V13h-1.854V0.4h5.274
				C77.064,0.4,78.792,1.732,78.792,4.342z M76.866,4.342c0-1.386-0.846-2.16-2.16-2.16h-3.384V6.52h3.384
				C76.146,6.52,76.866,5.692,76.866,4.342z M90.359,13v-1.836h-6.498V7.186h3.619V5.35h-3.619V2.236h6.229V0.4h-8.117V13H90.359z
				 M103.368,4.162c0,2.016-1.062,3.258-2.772,3.689L103.17,13h-2.178L98.49,8.014h-2.844V13h-1.854V0.4h5.526
				C101.514,0.4,103.368,1.57,103.368,4.162z M101.46,4.216c0-1.314-0.864-2.034-2.142-2.034h-3.672v4.05h3.672
				C100.578,6.232,101.46,5.584,101.46,4.216z M125.641,0.4h-1.836l-1.531,8.136c-0.053,0.306-0.162,1.008-0.252,1.476
				c-0.071-0.449-0.215-1.115-0.306-1.457L119.664,0.4h-1.62l-2.017,7.974c-0.09,0.378-0.27,1.224-0.342,1.638
				c-0.054-0.414-0.215-1.277-0.287-1.656L113.887,0.4h-1.908l2.574,12.6h1.871l2.053-8.136c0.107-0.432,0.306-1.368,0.359-1.674
				c0.055,0.306,0.252,1.242,0.359,1.674L121.158,13h1.908L125.641,0.4z M137.316,13v-1.836h-6.498V7.186h3.617V5.35h-3.617V2.236
				h6.228V0.4h-8.118V13H137.316z M149.189,9.382c0-2.25-1.547-3.042-4.031-3.798c-2.178-0.648-2.754-1.08-2.754-1.962
				c0-0.846,0.63-1.566,2.105-1.566c1.242,0,2.143,0.396,2.934,1.206l1.332-1.35c-1.115-1.08-2.412-1.71-4.121-1.71
				c-2.322,0-4.158,1.332-4.158,3.51c0,2.25,1.277,2.916,3.941,3.708c2.106,0.63,2.844,1.116,2.844,2.088
				c0,1.225-0.846,1.836-2.609,1.836c-1.188,0-2.43-0.576-3.275-1.494l-1.351,1.314c1.062,1.242,2.646,2.034,4.481,2.034
				C147.75,13.198,149.189,11.65,149.189,9.382z M161.208,2.254V0.4h-9.233v1.854h3.672V13h1.89V2.254H161.208z"/>
		</g>
	</g>
</g>
</svg>
